<svg xmlns="http://www.w3.org/2000/svg" style="display: none;">
    <symbol id="settings" viewBox="0 0 478.703 478.703">
        <title>settings</title>
        <path d="M454.2,189.101l-33.6-5.7c-3.5-11.3-8-22.2-13.5-32.6l19.8-27.7c8.4-11.8,7.1-27.9-3.2-38.1l-29.8-29.8 c-5.6-5.6-13-8.7-20.9-8.7c-6.2,0-12.1,1.9-17.1,5.5l-27.8,19.8c-10.8-5.7-22.1-10.4-33.8-13.9l-5.6-33.2 c-2.4-14.3-14.7-24.7-29.2-24.7h-42.1c-14.5,0-26.8,10.4-29.2,24.7l-5.8,34c-11.2,3.5-22.1,8.1-32.5,13.7l-27.5-19.8 c-5-3.6-11-5.5-17.2-5.5c-7.9,0-15.4,3.1-20.9,8.7l-29.9,29.8c-10.2,10.2-11.6,26.3-3.2,38.1l20,28.1 c-5.5,10.5-9.9,21.4-13.3,32.7l-33.2,5.6c-14.3,2.4-24.7,14.7-24.7,29.2v42.1c0,14.5,10.4,26.8,24.7,29.2l34,5.8 c3.5,11.2,8.1,22.1,13.7,32.5l-19.7,27.4c-8.4,11.8-7.1,27.9,3.2,38.1l29.8,29.8c5.6,5.6,13,8.7,20.9,8.7c6.2,0,12.1-1.9,17.1-5.5 l28.1-20c10.1,5.3,20.7,9.6,31.6,13l5.6,33.6c2.4,14.3,14.7,24.7,29.2,24.7h42.2c14.5,0,26.8-10.4,29.2-24.7l5.7-33.6 c11.3-3.5,22.2-8,32.6-13.5l27.7,19.8c5,3.6,11,5.5,17.2,5.5l0,0c7.9,0,15.3-3.1,20.9-8.7l29.8-29.8c10.2-10.2,11.6-26.3,3.2-38.1 l-19.8-27.8c5.5-10.5,10.1-21.4,13.5-32.6l33.6-5.6c14.3-2.4,24.7-14.7,24.7-29.2v-42.1 C478.9,203.801,468.5,191.501,454.2,189.101z M451.9,260.401c0,1.3-0.9,2.4-2.2,2.6l-42,7c-5.3,0.9-9.5,4.8-10.8,9.9 c-3.8,14.7-9.6,28.8-17.4,41.9c-2.7,4.6-2.5,10.3,0.6,14.7l24.7,34.8c0.7,1,0.6,2.5-0.3,3.4l-29.8,29.8c-0.7,0.7-1.4,0.8-1.9,0.8 c-0.6,0-1.1-0.2-1.5-0.5l-34.7-24.7c-4.3-3.1-10.1-3.3-14.7-0.6c-13.1,7.8-27.2,13.6-41.9,17.4c-5.2,1.3-9.1,5.6-9.9,10.8l-7.1,42 c-0.2,1.3-1.3,2.2-2.6,2.2h-42.1c-1.3,0-2.4-0.9-2.6-2.2l-7-42c-0.9-5.3-4.8-9.5-9.9-10.8c-14.3-3.7-28.1-9.4-41-16.8 c-2.1-1.2-4.5-1.8-6.8-1.8c-2.7,0-5.5,0.8-7.8,2.5l-35,24.9c-0.5,0.3-1,0.5-1.5,0.5c-0.4,0-1.2-0.1-1.9-0.8l-29.8-29.8 c-0.9-0.9-1-2.3-0.3-3.4l24.6-34.5c3.1-4.4,3.3-10.2,0.6-14.8c-7.8-13-13.8-27.1-17.6-41.8c-1.4-5.1-5.6-9-10.8-9.9l-42.3-7.2 c-1.3-0.2-2.2-1.3-2.2-2.6v-42.1c0-1.3,0.9-2.4,2.2-2.6l41.7-7c5.3-0.9,9.6-4.8,10.9-10c3.7-14.7,9.4-28.9,17.1-42 c2.7-4.6,2.4-10.3-0.7-14.6l-24.9-35c-0.7-1-0.6-2.5,0.3-3.4l29.8-29.8c0.7-0.7,1.4-0.8,1.9-0.8c0.6,0,1.1,0.2,1.5,0.5l34.5,24.6 c4.4,3.1,10.2,3.3,14.8,0.6c13-7.8,27.1-13.8,41.8-17.6c5.1-1.4,9-5.6,9.9-10.8l7.2-42.3c0.2-1.3,1.3-2.2,2.6-2.2h42.1 c1.3,0,2.4,0.9,2.6,2.2l7,41.7c0.9,5.3,4.8,9.6,10,10.9c15.1,3.8,29.5,9.7,42.9,17.6c4.6,2.7,10.3,2.5,14.7-0.6l34.5-24.8 c0.5-0.3,1-0.5,1.5-0.5c0.4,0,1.2,0.1,1.9,0.8l29.8,29.8c0.9,0.9,1,2.3,0.3,3.4l-24.7,34.7c-3.1,4.3-3.3,10.1-0.6,14.7 c7.8,13.1,13.6,27.2,17.4,41.9c1.3,5.2,5.6,9.1,10.8,9.9l42,7.1c1.3,0.2,2.2,1.3,2.2,2.6v42.1H451.9z" />
        <path d="M239.4,136.001c-57,0-103.3,46.3-103.3,103.3s46.3,103.3,103.3,103.3s103.3-46.3,103.3-103.3S296.4,136.001,239.4,136.001 z M239.4,315.601c-42.1,0-76.3-34.2-76.3-76.3s34.2-76.3,76.3-76.3s76.3,34.2,76.3,76.3S281.5,315.601,239.4,315.601z" />
    </symbol>
    <symbol id="house" viewBox="0 0 486.196 486.196">
        <title>house</title>
        <path d="M481.708,220.456l-228.8-204.6c-0.4-0.4-0.8-0.7-1.3-1c-5-4.8-13-5-18.3-0.3l-228.8,204.6c-5.6,5-6,13.5-1.1,19.1 c2.7,3,6.4,4.5,10.1,4.5c3.2,0,6.4-1.1,9-3.4l41.2-36.9v7.2v106.8v124.6c0,18.7,15.2,34,34,34c0.3,0,0.5,0,0.8,0s0.5,0,0.8,0h70.6 c17.6,0,31.9-14.3,31.9-31.9v-121.3c0-2.7,2.2-4.9,4.9-4.9h72.9c2.7,0,4.9,2.2,4.9,4.9v121.3c0,17.6,14.3,31.9,31.9,31.9h72.2 c19,0,34-18.7,34-42.6v-111.2v-34v-83.5l41.2,36.9c2.6,2.3,5.8,3.4,9,3.4c3.7,0,7.4-1.5,10.1-4.5 C487.708,233.956,487.208,225.456,481.708,220.456z M395.508,287.156v34v111.1c0,9.7-4.8,15.6-7,15.6h-72.2c-2.7,0-4.9-2.2-4.9-4.9 v-121.1c0-17.6-14.3-31.9-31.9-31.9h-72.9c-17.6,0-31.9,14.3-31.9,31.9v121.3c0,2.7-2.2,4.9-4.9,4.9h-70.6c-0.3,0-0.5,0-0.8,0 s-0.5,0-0.8,0c-3.8,0-7-3.1-7-7v-124.7v-106.8v-31.3l151.8-135.6l153.1,136.9L395.508,287.156L395.508,287.156z" />
    </symbol>
    <symbol id="avatar" viewBox="0 0 482.9 482.9">
        <title>avatar</title>
        <path d="M239.7,260.2c0.5,0,1,0,1.6,0c0.2,0,0.4,0,0.6,0c0.3,0,0.7,0,1,0c29.3-0.5,53-10.8,70.5-30.5 c38.5-43.4,32.1-117.8,31.4-124.9c-2.5-53.3-27.7-78.8-48.5-90.7C280.8,5.2,262.7,0.4,242.5,0h-0.7c-0.1,0-0.3,0-0.4,0h-0.6 c-11.1,0-32.9,1.8-53.8,13.7c-21,11.9-46.6,37.4-49.1,91.1c-0.7,7.1-7.1,81.5,31.4,124.9C186.7,249.4,210.4,259.7,239.7,260.2z M164.6,107.3c0-0.3,0.1-0.6,0.1-0.8c3.3-71.7,54.2-79.4,76-79.4h0.4c0.2,0,0.5,0,0.8,0c27,0.6,72.9,11.6,76,79.4 c0,0.3,0,0.6,0.1,0.8c0.1,0.7,7.1,68.7-24.7,104.5c-12.6,14.2-29.4,21.2-51.5,21.4c-0.2,0-0.3,0-0.5,0l0,0c-0.2,0-0.3,0-0.5,0 c-22-0.2-38.9-7.2-51.4-21.4C157.7,176.2,164.5,107.9,164.6,107.3z" />
        <path d="M446.8,383.6c0-0.1,0-0.2,0-0.3c0-0.8-0.1-1.6-0.1-2.5c-0.6-19.8-1.9-66.1-45.3-80.9c-0.3-0.1-0.7-0.2-1-0.3 c-45.1-11.5-82.6-37.5-83-37.8c-6.1-4.3-14.5-2.8-18.8,3.3c-4.3,6.1-2.8,14.5,3.3,18.8c1.7,1.2,41.5,28.9,91.3,41.7 c23.3,8.3,25.9,33.2,26.6,56c0,0.9,0,1.7,0.1,2.5c0.1,9-0.5,22.9-2.1,30.9c-16.2,9.2-79.7,41-176.3,41 c-96.2,0-160.1-31.9-176.4-41.1c-1.6-8-2.3-21.9-2.1-30.9c0-0.8,0.1-1.6,0.1-2.5c0.7-22.8,3.3-47.7,26.6-56 c49.8-12.8,89.6-40.6,91.3-41.7c6.1-4.3,7.6-12.7,3.3-18.8c-4.3-6.1-12.7-7.6-18.8-3.3c-0.4,0.3-37.7,26.3-83,37.8 c-0.4,0.1-0.7,0.2-1,0.3c-43.4,14.9-44.7,61.2-45.3,80.9c0,0.9,0,1.7-0.1,2.5c0,0.1,0,0.2,0,0.3c-0.1,5.2-0.2,31.9,5.1,45.3 c1,2.6,2.8,4.8,5.2,6.3c3,2,74.9,47.8,195.2,47.8s192.2-45.9,195.2-47.8c2.3-1.5,4.2-3.7,5.2-6.3 C447,415.5,446.9,388.8,446.8,383.6z" />
    </symbol>
    <symbol id="facebook" viewBox="0 0 512 512">
        <title>facebook</title>
        <path d="m483.738281 0h-455.5c-15.597656.0078125-28.24218725 12.660156-28.238281 28.261719v455.5c.0078125 15.597656 12.660156 28.242187 28.261719 28.238281h455.476562c15.605469.003906 28.257813-12.644531 28.261719-28.25 0-.003906 0-.007812 0-.011719v-455.5c-.007812-15.597656-12.660156-28.24218725-28.261719-28.238281zm0 0" fill="#4267b2" />
        <path d="m353.5 512v-198h66.75l10-77.5h-76.75v-49.359375c0-22.386719 6.214844-37.640625 38.316406-37.640625h40.683594v-69.128906c-7.078125-.941406-31.363281-3.046875-59.621094-3.046875-59 0-99.378906 36-99.378906 102.140625v57.035156h-66.5v77.5h66.5v198zm0 0" fill="#fff" />
    </symbol>
    <symbol id="linkedin" viewBox="0 -11 512 511">
        <title>linkedin</title>
        <path d="m6.488281 159.683594h109.753907v330.207031h-109.753907zm0 0" />
        <path d="m62.089844.5c-37.542969 0-62.089844 24.652344-62.089844 57.054688 0 31.6875 23.816406 57.042968 60.648438 57.042968h.714843c38.277344 0 62.097657-25.355468 62.097657-57.042968-.714844-32.402344-23.820313-57.054688-61.371094-57.054688zm0 0" />
        <path d="m385.644531 151.933594c-58.234375 0-84.328125 32.003906-98.914062 54.507812v-46.757812h-109.757813v330.207031h109.753906v-184.402344c0-9.871093.714844-19.726562 3.613282-26.785156 7.933594-19.714844 25.992187-40.136719 56.3125-40.136719 39.714844 0 55.601562 30.28125 55.601562 74.671875v176.652344h109.746094v-189.335937c0-101.425782-54.148438-148.621094-126.355469-148.621094zm0 0" />
    </symbol>
    <symbol id="twitter" viewBox="1 -47 511.999 511">
        <title>twitter</title>
        <path d="m161.019531 416.605469c193.21875 0 298.878907-160.074219 298.878907-298.878907 0-4.546874-.09375-9.074218-.296876-13.578124 20.507813-14.828126 38.335938-33.332032 52.398438-54.394532-18.820312 8.367188-39.078125 13.996094-60.324219 16.539063 21.6875-13.007813 38.339844-33.578125 46.191407-58.101563-20.296876 12.03125-42.773438 20.773438-66.703126 25.496094-19.167968-20.417969-46.460937-33.1875-76.679687-33.1875-58.007813 0-105.050781 47.042969-105.050781 105.03125 0 8.246094.921875 16.261719 2.722656 23.953125-87.304688-4.394531-164.722656-46.191406-216.527344-109.753906-9.019531 15.523437-14.222656 33.558593-14.222656 52.800781 0 36.441406 18.546875 68.617188 46.746094 87.4375-17.234375-.53125-33.421875-5.261719-47.574219-13.136719-.015625.441407-.015625.871094-.015625 1.339844 0 50.875 36.207031 93.351563 84.277344 102.976563-8.828125 2.402343-18.117188 3.695312-27.699219 3.695312-6.757813 0-13.34375-.664062-19.746094-1.894531 13.375 41.738281 52.15625 72.109375 98.132813 72.960937-35.953125 28.179688-81.246094 44.964844-130.46875 44.964844-8.46875 0-16.835938-.484375-25.058594-1.453125 46.488281 29.796875 101.695312 47.1875 161.023438 47.1875" fill="#1da1f2" />
    </symbol>
    <symbol id="clock-with-white-face" viewBox="0 0 510 510">
        <title>clock-with-white-face</title>
        <path style="fill-opacity:0.9;" d="M255,0C114.75,0,0,114.75,0,255s114.75,255,255,255s255-114.75,255-255S395.25,0,255,0z M255,459c-112.2,0-204-91.8-204-204S142.8,51,255,51s204,91.8,204,204S367.2,459,255,459z" />
        <polygon style="fill-opacity:0.9;" points="267.75,127.5 229.5,127.5 229.5,280.5 362.1,362.1 382.5,328.95 267.75,260.1 " />
    </symbol>
    <symbol id="placeholder-for-map" viewBox="0 0 513.597 513.597">
        <title>placeholder-for-map</title>
        <path d="M263.278,0.107C158.977-3.408,73.323,80.095,73.323,183.602c0,117.469,112.73,202.72,175.915,325.322 c3.208,6.225,12.169,6.233,15.388,0.009c57.16-110.317,154.854-184.291,172.959-290.569 C456.331,108.387,374.776,3.866,263.278,0.107z M256.923,279.773c-53.113,0-96.171-43.059-96.171-96.171 s43.059-96.171,96.171-96.171c53.113,0,96.172,43.059,96.172,96.171S310.036,279.773,256.923,279.773z" />
    </symbol>
</svg>